<svg display="none" version="1.1" xmlns="http://www.w3.org/2000/svg" xmlns:xlink="http://www.w3.org/1999/xlink">
<defs>
<symbol id="icon-mug" viewBox="0 0 1024 1024">
	<title>mug</title>
	<path class="path1" d="M832 320h-64v-96c0-88.366-171.922-160-384-160s-384 71.634-384 160v576c0 88.366 171.922 160 384 160s384-71.634 384-160v-96h64c105.6 0 192-86.4 192-192s-86.4-192-192-192zM176.056 189.602c57.942-19.090 131.79-29.602 207.944-29.602s150.004 10.512 207.944 29.602c36.994 12.188 59.408 25.246 71.41 34.398-12.002 9.152-34.416 22.208-71.41 34.398-57.94 19.090-131.79 29.602-207.944 29.602s-150.002-10.512-207.944-29.602c-36.994-12.19-59.408-25.246-71.41-34.398 12.002-9.152 34.416-22.208 71.41-34.398zM904.364 568.364c-8.828 8.828-27.89 23.636-56.364 23.636h-80v-160h80c28.474 0 47.536 14.81 56.364 23.638s23.636 27.888 23.636 56.362-14.808 47.536-23.636 56.364z" />
</symbol>
</defs>
</svg>
